<svg width="16" height="16" viewBox="0 0 16 16" fill="none" xmlns="http://www.w3.org/2000/svg">
<g clip-path="url(#clip0_16_142)">
<path d="M13.545 2.907C12.5075 2.43086 11.4127 2.09104 10.288 1.896C10.2778 1.89428 10.2673 1.89576 10.258 1.90024C10.2487 1.90472 10.241 1.91197 10.236 1.921C10.095 2.171 9.93899 2.498 9.82999 2.754C8.61759 2.57 7.38438 2.57 6.17199 2.754C6.0504 2.46882 5.91285 2.19071 5.75999 1.921C5.75486 1.91207 5.74714 1.9049 5.73786 1.90044C5.72858 1.89597 5.71816 1.89443 5.70799 1.896C4.58299 2.09 3.48799 2.43 2.45099 2.907C2.44211 2.91038 2.43469 2.91675 2.42999 2.925C0.355986 6.024 -0.213014 9.047 0.0659858 12.032C0.0669858 12.046 0.0759858 12.06 0.0869858 12.069C1.29471 12.9636 2.64558 13.6467 4.08199 14.089C4.09213 14.0922 4.10302 14.0921 4.1131 14.0887C4.12317 14.0852 4.13189 14.0787 4.13799 14.07C4.44599 13.65 4.71999 13.207 4.95599 12.741C4.9609 12.7314 4.96259 12.7205 4.96079 12.7098C4.95898 12.6992 4.95379 12.6894 4.94599 12.682C4.94082 12.6771 4.93469 12.6734 4.92799 12.671C4.49715 12.5054 4.07988 12.3065 3.67999 12.076C3.66882 12.0697 3.66051 12.0593 3.65679 12.047C3.65306 12.0347 3.65421 12.0215 3.65999 12.01C3.66339 12.0026 3.66853 11.996 3.67499 11.991C3.75899 11.928 3.84299 11.862 3.92299 11.796C3.93005 11.7903 3.93853 11.7867 3.94752 11.7854C3.9565 11.7842 3.96565 11.7854 3.97399 11.789C6.59299 12.985 9.42799 12.985 12.015 11.789C12.0236 11.7853 12.0331 11.7839 12.0425 11.7852C12.0518 11.7864 12.0606 11.7901 12.068 11.796C12.148 11.862 12.232 11.928 12.316 11.991C12.3228 11.996 12.3283 12.0026 12.3319 12.0102C12.3355 12.0178 12.3372 12.0262 12.3368 12.0346C12.3364 12.043 12.334 12.0512 12.3296 12.0584C12.3253 12.0656 12.3192 12.0717 12.312 12.076C11.913 12.3086 11.4952 12.5073 11.063 12.67C11.0561 12.6725 11.0498 12.6765 11.0446 12.6817C11.0395 12.6868 11.0355 12.6931 11.033 12.7C11.0307 12.7067 11.0297 12.7138 11.0303 12.7208C11.0308 12.7279 11.0327 12.7347 11.036 12.741C11.276 13.206 11.551 13.65 11.853 14.07C11.8591 14.0787 11.8678 14.0852 11.8779 14.0887C11.8879 14.0921 11.8988 14.0922 11.909 14.089C13.3478 13.648 14.7009 12.9649 15.91 12.069C15.916 12.0648 15.9211 12.0593 15.9247 12.0529C15.9283 12.0465 15.9305 12.0393 15.931 12.032C16.265 8.581 15.372 5.583 13.565 2.926C13.5632 2.92161 13.5604 2.91765 13.557 2.91438C13.5536 2.9111 13.5495 2.90859 13.545 2.907ZM5.34699 10.214C4.55799 10.214 3.90899 9.49 3.90899 8.602C3.90899 7.713 4.54599 6.989 5.34699 6.989C6.15399 6.989 6.79699 7.719 6.78499 8.602C6.78499 9.49 6.14799 10.214 5.34699 10.214ZM10.663 10.214C9.87499 10.214 9.22499 9.49 9.22499 8.602C9.22499 7.713 9.86199 6.989 10.663 6.989C11.47 6.989 12.114 7.719 12.101 8.602C12.101 9.49 11.47 10.214 10.663 10.214Z" fill="currentColor"/>
</g>
<defs>
<clipPath id="clip0_16_142">
<rect width="16" height="16" fill="white"/>
</clipPath>
</defs>
</svg>
